<svg xmlns="http://www.w3.org/2000/svg" viewBox="0 0 800 500" font-family="Inter, system-ui, sans-serif">
  <defs>
    <linearGradient id="bg9" x1="0%" y1="0%" x2="100%" y2="100%">
      <stop offset="0%" style="stop-color:#0c0c1d;stop-opacity:1" />
      <stop offset="100%" style="stop-color:#1a1a3e;stop-opacity:1" />
    </linearGradient>
  </defs>
  <rect width="800" height="500" fill="url(#bg9)" rx="12"/>

  <text x="400" y="40" text-anchor="middle" fill="#fb7185" font-size="22" font-weight="700">ATV-Bilibili — Apple TV Streaming</text>
  <line x1="210" y1="50" x2="590" y2="50" stroke="#f43f5e" stroke-width="2"/>

  <defs><marker id="arr18" markerWidth="8" markerHeight="6" refX="8" refY="3" orient="auto"><path d="M0,0 L8,3 L0,6" fill="#f43f5e"/></marker></defs>

  <!-- Apple TV Device -->
  <rect x="250" y="65" width="300" height="60" rx="10" fill="#1e1b4b" stroke="#6366f1" stroke-width="1.5"/>
  <text x="400" y="90" text-anchor="middle" fill="#e0e7ff" font-size="16" font-weight="700">Apple TV (tvOS)</text>
  <text x="400" y="110" text-anchor="middle" fill="#a5b4fc" font-size="10">Swift Native • Focus-Based Navigation • Siri Remote</text>

  <path d="M400,125 L400,155" stroke="#6366f1" stroke-width="1.5" fill="none" marker-end="url(#arr19)"/>
  <defs><marker id="arr19" markerWidth="8" markerHeight="6" refX="8" refY="3" orient="auto"><path d="M0,0 L8,3 L0,6" fill="#6366f1"/></marker></defs>

  <!-- App Layer -->
  <rect x="100" y="155" width="600" height="70" rx="10" fill="#1e3a5f" stroke="#3b82f6" stroke-width="1.5"/>
  <text x="400" y="180" text-anchor="middle" fill="#93c5fd" font-size="14" font-weight="700">BiliBili tvOS Client (Extensively Customized Fork)</text>
  <text x="400" y="200" text-anchor="middle" fill="#cbd5e1" font-size="10">Custom UI • Enhanced Features • Performance Optimized • QR Code Login</text>

  <!-- Feature Grid -->
  <rect x="60" y="250" width="220" height="80" rx="8" fill="#7c2d12" stroke="#f97316" stroke-width="1.5"/>
  <text x="170" y="275" text-anchor="middle" fill="#fed7aa" font-size="13" font-weight="700">Video Playback</text>
  <text x="170" y="295" text-anchor="middle" fill="#fde68a" font-size="10">HDR / Dolby Vision</text>
  <text x="170" y="310" text-anchor="middle" fill="#94a3b8" font-size="9">RTSP/DASH • Loop • Auto-save</text>

  <rect x="290" y="250" width="220" height="80" rx="8" fill="#4c1d95" stroke="#a855f7" stroke-width="1.5"/>
  <text x="400" y="275" text-anchor="middle" fill="#c4b5fd" font-size="13" font-weight="700">Live Streaming</text>
  <text x="400" y="295" text-anchor="middle" fill="#ddd6fe" font-size="10">Real-Time Danmaku</text>
  <text x="400" y="310" text-anchor="middle" fill="#94a3b8" font-size="9">Comment Overlay • Live Chat</text>

  <rect x="520" y="250" width="220" height="80" rx="8" fill="#064e3b" stroke="#10b981" stroke-width="1.5"/>
  <text x="630" y="275" text-anchor="middle" fill="#6ee7b7" font-size="13" font-weight="700">Content Discovery</text>
  <text x="630" y="295" text-anchor="middle" fill="#a7f3d0" font-size="10">Search • Trending • Playlists</text>
  <text x="630" y="310" text-anchor="middle" fill="#94a3b8" font-size="9">Recommendations • History</text>

  <!-- Additional Features -->
  <rect x="120" y="355" width="250" height="60" rx="8" fill="#0e7490" stroke="#22d3ee" stroke-width="1.5"/>
  <text x="245" y="380" text-anchor="middle" fill="#a5f3fc" font-size="13" font-weight="700">SponsorBlock Integration</text>
  <text x="245" y="398" text-anchor="middle" fill="#94a3b8" font-size="10">Auto-skip Sponsor Segments</text>

  <rect x="430" y="355" width="250" height="60" rx="8" fill="#581c87" stroke="#9333ea" stroke-width="1.5"/>
  <text x="555" y="380" text-anchor="middle" fill="#e9d5ff" font-size="13" font-weight="700">QR Code Authentication</text>
  <text x="555" y="398" text-anchor="middle" fill="#94a3b8" font-size="10">Scan to Login • Session Persistence</text>

  <!-- Tech badges -->
  <rect x="100" y="440" width="600" height="40" rx="8" fill="#0c0c1d" stroke="#1e3a5f" stroke-width="1"/>
  <text x="165" y="464" fill="#fb7185" font-size="10" font-weight="600">Swift</text>
  <text x="245" y="464" fill="#93c5fd" font-size="10" font-weight="600">tvOS</text>
  <text x="325" y="464" fill="#fed7aa" font-size="10" font-weight="600">AVPlayer</text>
  <text x="415" y="464" fill="#c4b5fd" font-size="10" font-weight="600">RTSP/DASH</text>
  <text x="515" y="464" fill="#a5f3fc" font-size="10" font-weight="600">SponsorBlock</text>
  <text x="625" y="464" fill="#6ee7b7" font-size="10" font-weight="600">QR Auth</text>
</svg>
