<svg xmlns="http://www.w3.org/2000/svg" viewBox="0 0 800 500" font-family="Inter, system-ui, sans-serif">
  <defs>
    <linearGradient id="bg2" x1="0%" y1="0%" x2="100%" y2="100%">
      <stop offset="0%" style="stop-color:#1a1a2e;stop-opacity:1" />
      <stop offset="100%" style="stop-color:#16213e;stop-opacity:1" />
    </linearGradient>
    <linearGradient id="med" x1="0%" y1="0%" x2="100%" y2="0%">
      <stop offset="0%" style="stop-color:#dc2626" />
      <stop offset="100%" style="stop-color:#f97316" />
    </linearGradient>
  </defs>
  <rect width="800" height="500" fill="url(#bg2)" rx="12"/>

  <text x="400" y="40" text-anchor="middle" fill="#fde68a" font-size="22" font-weight="700">ThyroidSentry — ML Pipeline</text>
  <line x1="230" y1="50" x2="570" y2="50" stroke="url(#med)" stroke-width="2"/>

  <!-- Pipeline Steps -->
  <!-- Step 1: Data -->
  <rect x="40" y="80" width="160" height="100" rx="10" fill="#1e3a5f" stroke="#3b82f6" stroke-width="1.5"/>
  <text x="120" y="110" text-anchor="middle" fill="#93c5fd" font-size="13" font-weight="700">1. Data Input</text>
  <text x="120" y="130" text-anchor="middle" fill="#cbd5e1" font-size="10">Patient Records</text>
  <text x="120" y="145" text-anchor="middle" fill="#cbd5e1" font-size="10">16 Clinical Features</text>
  <text x="120" y="160" text-anchor="middle" fill="#94a3b8" font-size="9">Age, Gender, Staging...</text>

  <path d="M200,130 L230,130" stroke="#3b82f6" stroke-width="1.5" fill="none" marker-end="url(#arr2)"/>
  <defs><marker id="arr2" markerWidth="8" markerHeight="6" refX="8" refY="3" orient="auto"><path d="M0,0 L8,3 L0,6" fill="#3b82f6"/></marker></defs>

  <!-- Step 2: Preprocessing -->
  <rect x="235" y="80" width="160" height="100" rx="10" fill="#1e3a5f" stroke="#3b82f6" stroke-width="1.5"/>
  <text x="315" y="110" text-anchor="middle" fill="#93c5fd" font-size="13" font-weight="700">2. Preprocessing</text>
  <text x="315" y="130" text-anchor="middle" fill="#cbd5e1" font-size="10">Feature Engineering</text>
  <text x="315" y="145" text-anchor="middle" fill="#cbd5e1" font-size="10">SMOTE Oversampling</text>
  <text x="315" y="160" text-anchor="middle" fill="#94a3b8" font-size="9">Class Balance Handling</text>

  <path d="M395,130 L425,130" stroke="#3b82f6" stroke-width="1.5" fill="none" marker-end="url(#arr2)"/>

  <!-- Step 3: Model -->
  <rect x="430" y="80" width="160" height="100" rx="10" fill="#7c2d12" stroke="#f97316" stroke-width="1.5"/>
  <text x="510" y="110" text-anchor="middle" fill="#fed7aa" font-size="13" font-weight="700">3. XGBoost Model</text>
  <text x="510" y="130" text-anchor="middle" fill="#fde68a" font-size="10">Optimized for Recall</text>
  <text x="510" y="145" text-anchor="middle" fill="#cbd5e1" font-size="10">Cross-Validation</text>
  <text x="510" y="160" text-anchor="middle" fill="#94a3b8" font-size="9">Hyperparameter Tuned</text>

  <path d="M590,130 L620,130" stroke="#f97316" stroke-width="1.5" fill="none" marker-end="url(#arr3)"/>
  <defs><marker id="arr3" markerWidth="8" markerHeight="6" refX="8" refY="3" orient="auto"><path d="M0,0 L8,3 L0,6" fill="#f97316"/></marker></defs>

  <!-- Step 4: Output -->
  <rect x="625" y="80" width="140" height="100" rx="10" fill="#14532d" stroke="#22c55e" stroke-width="1.5"/>
  <text x="695" y="110" text-anchor="middle" fill="#86efac" font-size="13" font-weight="700">4. Prediction</text>
  <text x="695" y="130" text-anchor="middle" fill="#bbf7d0" font-size="10">Risk Assessment</text>
  <text x="695" y="145" text-anchor="middle" fill="#cbd5e1" font-size="10">SHAP Explanation</text>
  <text x="695" y="160" text-anchor="middle" fill="#94a3b8" font-size="9">Interpretable Output</text>

  <!-- Metrics Section -->
  <rect x="80" y="210" width="640" height="80" rx="10" fill="#042f2e" stroke="#6366f1" stroke-width="1"/>
  <text x="400" y="235" text-anchor="middle" fill="#ccfbf1" font-size="15" font-weight="700">Model Performance Metrics</text>

  <text x="170" y="265" text-anchor="middle" fill="#22c55e" font-size="28" font-weight="800">97.4%</text>
  <text x="170" y="280" text-anchor="middle" fill="#94a3b8" font-size="10">Accuracy</text>

  <text x="330" y="265" text-anchor="middle" fill="#f97316" font-size="28" font-weight="800">95.5%</text>
  <text x="330" y="280" text-anchor="middle" fill="#94a3b8" font-size="10">Sensitivity</text>

  <text x="490" y="265" text-anchor="middle" fill="#3b82f6" font-size="28" font-weight="800">97.8%</text>
  <text x="490" y="280" text-anchor="middle" fill="#94a3b8" font-size="10">Specificity</text>

  <text x="630" y="265" text-anchor="middle" fill="#a855f7" font-size="28" font-weight="800">0.99</text>
  <text x="630" y="280" text-anchor="middle" fill="#94a3b8" font-size="10">AUC-ROC</text>

  <!-- Streamlit UI -->
  <rect x="80" y="315" width="300" height="155" rx="10" fill="#1e3a5f" stroke="#3b82f6" stroke-width="1.5"/>
  <text x="230" y="340" text-anchor="middle" fill="#93c5fd" font-size="14" font-weight="700">Streamlit Web Interface</text>
  <rect x="100" y="350" width="260" height="25" rx="4" fill="#0f172a" stroke="#334155" stroke-width="1"/>
  <text x="110" y="367" fill="#94a3b8" font-size="10">Patient Age: ___  Gender: ___</text>
  <rect x="100" y="380" width="260" height="25" rx="4" fill="#0f172a" stroke="#334155" stroke-width="1"/>
  <text x="110" y="397" fill="#94a3b8" font-size="10">T-Stage: ___  N-Stage: ___  M-Stage: ___</text>
  <rect x="100" y="410" width="120" height="30" rx="6" fill="#dc2626" stroke="#ef4444" stroke-width="1"/>
  <text x="160" y="430" text-anchor="middle" fill="#fff" font-size="11" font-weight="600">Predict Risk</text>
  <rect x="230" y="410" width="130" height="30" rx="6" fill="#1e3a5f" stroke="#3b82f6" stroke-width="1"/>
  <text x="295" y="430" text-anchor="middle" fill="#93c5fd" font-size="11" font-weight="600">View SHAP</text>

  <!-- Tech Stack -->
  <rect x="420" y="315" width="300" height="155" rx="10" fill="#1e3a5f" stroke="#3b82f6" stroke-width="1.5"/>
  <text x="570" y="340" text-anchor="middle" fill="#93c5fd" font-size="14" font-weight="700">Technology Stack</text>
  <text x="460" y="365" fill="#fde68a" font-size="11">▪ XGBoost</text>
  <text x="590" y="365" fill="#fde68a" font-size="11">▪ scikit-learn</text>
  <text x="460" y="385" fill="#86efac" font-size="11">▪ Streamlit</text>
  <text x="590" y="385" fill="#86efac" font-size="11">▪ Plotly</text>
  <text x="460" y="405" fill="#93c5fd" font-size="11">▪ SHAP</text>
  <text x="590" y="405" fill="#93c5fd" font-size="11">▪ Pandas</text>
  <text x="460" y="425" fill="#c4b5fd" font-size="11">▪ NumPy</text>
  <text x="590" y="425" fill="#c4b5fd" font-size="11">▪ joblib</text>
  <text x="460" y="450" fill="#94a3b8" font-size="10">Medical ML • Interpretable AI</text>
</svg>
